<svg xmlns="http://www.w3.org/2000/svg" viewBox="0 0 32 32">
  <rect width="32" height="32" rx="7" fill="#2e1f12"/>
  <path d="M9 11h12v14a2 2 0 0 1-2 2h-8a2 2 0 0 1-2-2V11Z" fill="#f2a33c"/>
  <path d="M21 14h2.4a2.1 2.1 0 0 1 2.1 2.1v3.8a2.1 2.1 0 0 1-2.1 2.1H21" fill="none" stroke="#f2a33c" stroke-width="2"/>
  <path d="M8.5 11c-.6-2.4.7-4 2.6-4.2.4-1.8 2.3-2.6 4-2 1.2-.7 2.9-.4 3.7.5 1.9-.1 3.2 1.3 2.8 3.1" fill="#fff8ec"/>
  <rect x="12" y="15" width="2" height="9" rx="1" fill="#b96f05" opacity=".6"/>
  <rect x="17" y="15" width="2" height="9" rx="1" fill="#b96f05" opacity=".6"/>
</svg>
