<svg version="1.1" id="Layer_1" xmlns:x="ns_extend;" xmlns:i="ns_ai;" xmlns:graph="ns_graphs;" xmlns="http://www.w3.org/2000/svg" xmlns:xlink="http://www.w3.org/1999/xlink" x="0px" y="0px" viewBox="0 0 438.5 56" style="enable-background:new 0 0 438.5 56;" xml:space="preserve">
 <style type="text/css">
  .st0{fill-rule:evenodd;clip-rule:evenodd;fill:#FFFFFF;}
	.st1{fill-rule:evenodd;clip-rule:evenodd;fill:#00A7E1;}
 </style>
 <metadata>
  <sfw xmlns="ns_sfw;">
   <slices>
   </slices>
   <sliceSourceBounds bottomLeftOrigin="true" height="56" width="438.5" x="-160.1" y="-209.8">
   </sliceSourceBounds>
  </sfw>
 </metadata>
 <g>
  <path class="st0" d="M422.3,35.3c12.7-3.7,16.2-7.7,16.2-18.9c0-8.3-3.7-16.4-19.3-16.4c-14.7,0-18.7,6.6-19.3,16.4
		c0,1.2,0.8,1.9,1.9,1.9h7.1c1.4,0,1.9-0.6,2.1-1.9c0.6-5.4,3.9-6.8,8.1-6.8c4.6,0,8.3,1.5,8.3,6.8c0,7.1-2.7,7.7-14.1,11.2
		c-12,3.5-15.4,8.9-15.4,17.8v7.7c0,1.2,0.6,1.9,1.9,1.9h34.8c1.2,0,1.9-0.6,1.9-1.9v-5.8c0-1.4-0.8-1.9-1.9-1.9H409
		C409,40.2,411.7,38.6,422.3,35.3z">
  </path>
  <path class="st0" d="M384.4,45.4V2.3c0-1.4-1-1.9-2.3-1.5l-17,6.4c-1,0.4-1.5,1.2-1.5,2.1V16c0,1.4,1,1.9,2.3,1.5l7.7-2.9v30.8h-10
		c-1.4,0-1.9,0.8-1.9,1.9v5.8c0,1.2,0.6,1.9,1.9,1.9h27c1.2,0,1.9-0.6,1.9-1.9v-5.8c0-1.4-0.8-1.9-1.9-1.9H384.4z">
  </path>
  <path class="st0" d="M341.7,35.3c12.7-3.7,16.2-7.7,16.2-18.9c0-8.3-3.7-16.4-19.3-16.4c-14.7,0-18.7,6.6-19.3,16.4
		c0,1.2,0.8,1.9,1.9,1.9h7.1c1.3,0,1.9-0.6,2.1-1.9c0.6-5.4,3.9-6.8,8.1-6.8c4.6,0,8.3,1.5,8.3,6.8c0,7.1-2.7,7.7-14.1,11.2
		c-12,3.5-15.4,8.9-15.4,17.8v7.7c0,1.2,0.6,1.9,1.9,1.9h34.8c1.2,0,1.9-0.6,1.9-1.9v-5.8c0-1.4-0.8-1.9-1.9-1.9h-25.7
		C328.4,40.2,331.1,38.6,341.7,35.3z">
  </path>
  <path class="st0" d="M231.9,2.9v21.6l0.7,10.8l-18.8-33c-0.6-1-1.2-1.4-2.3-1.4h-7.3c-1.4,0-1.9,0.8-1.9,1.9v50.2
		c0,1.2,0.6,1.9,1.9,1.9h7c1.2,0,1.9-0.8,1.9-1.9V31.5l-0.7-10.8l18.8,33c0.6,1,1.2,1.3,2.3,1.3h7.3c1.2,0,1.9-0.6,1.9-1.9V2.9
		c0-1.4-0.8-1.9-1.9-1.9h-7C232.5,1,231.9,1.5,231.9,2.9z">
  </path>
  <path class="st0" d="M191.8,53.1V2.9c0-1.4-0.8-1.9-1.9-1.9h-7c-1.4,0-1.9,0.8-1.9,1.9v50.2c0,1.2,0.6,1.9,1.9,1.9h7
		C191,55,191.8,54.3,191.8,53.1z">
  </path>
  <path class="st1" d="M106.4,13.6l7.5,16.7c0.4,1.2,1.2,1.5,2.1,1.5h7.1c1.5,0,2.1-1,1.5-2.3l-12.2-27c-0.4-1.2-1.2-1.5-2.1-1.5
		h-8.1c-1,0-1.7,0.4-2.1,1.5l-12.2,27c-0.6,1.4,0,2.3,1.5,2.3h7.1c1,0,1.7-0.4,2.1-1.5L106.4,13.6z">
  </path>
  <path class="st0" d="M63.1,24.9h-7.5V10.6h7.5c6.6,0,9.3,1.9,9.3,7.1C72.4,23,69.7,24.9,63.1,24.9z M74.2,32.9
		c7.7-2.9,9.2-9.1,9.2-15.2C83.4,9.5,80.7,1,63.1,1H46.7c-1.4,0-1.9,0.8-1.9,1.9v50.2c0,1.2,0.6,1.9,1.9,1.9h6.9
		c1.2,0,1.9-0.8,1.9-1.9V34.6l8.1,0l8,18.9c0.4,1.2,1.2,1.5,2.1,1.5h7.1c1.5,0,2.1-1,1.5-2.3L74.2,32.9z">
  </path>
  <path class="st0" d="M36.7,1H1.9C0.6,1,0,1.5,0,2.9v5.8c0,1.2,0.8,1.9,1.9,1.9h12v42.5c0,1.2,0.6,1.9,1.9,1.9h7
		c1.2,0,1.9-0.8,1.9-1.9V10.6h12c1.2,0,1.9-0.8,1.9-1.9V2.9C38.6,1.5,37.8,1,36.7,1z">
  </path>
  <path class="st0" d="M290.8,26.1h-16.4c-1.3,0-1.9,0.6-1.9,1.9v5.8c0,1.2,0.6,1.9,1.9,1.9h7.3v1.9c0,7.1-2.7,8.7-9.3,8.7
		c-6.6,0-9.3-1.5-9.3-8.7V18.3c0-7.1,2.7-8.7,9.3-8.7c6,0,8.7,1.4,9.3,6.8c0,1.4,0.6,1.9,1.9,1.9h7.1c1.2,0,1.9-0.8,1.9-1.9
		C292.4,6.6,288.9,0,272.5,0c-17.6,0-20.3,7.5-20.3,17.8v20.5c0,10.2,2.7,17.8,20.3,17.8c17.6,0,20.3-7.5,20.3-17.8V28
		C292.7,26.6,292,26.1,290.8,26.1z">
  </path>
  <path class="st0" d="M160.3,36.7c0,7.1-2.7,8.7-9.3,8.7h-7.5V10.6h7.5c6.6,0,9.3,1.5,9.3,8.7V36.7z M151,1h-16.4
		c-1.4,0-1.9,0.8-1.9,1.9v50.2c0,1.2,0.6,1.9,1.9,1.9H151c17.6,0,20.3-7.5,20.3-17.8V18.7C171.3,8.5,168.6,1,151,1z">
  </path>
 </g>
</svg>